<svg xmlns="http://www.w3.org/2000/svg" viewBox="0 0 700 560" width="100%" style="display:block"><rect x="0" y="0" width="700" height="560" fill="#161a12"/><rect x="0" y="0.0" width="700" height="89.6" fill="#453a2c"/><path d="M157 77.0 q6 10 -3 22" stroke="#00000030" stroke-width="2" fill="none"/><path d="M84 37.0 q6 10 -3 22" stroke="#00000030" stroke-width="2" fill="none"/><path d="M140 68.0 q6 10 -3 22" stroke="#00000030" stroke-width="2" fill="none"/><path d="M480 65.0 q6 10 -3 22" stroke="#00000030" stroke-width="2" fill="none"/><line x1="0" y1="0.0" x2="700" y2="0.0" stroke="#00000030" stroke-width="1.5"/><text x="24" y="44.8" font-family="Inter,sans-serif" font-size="21" font-weight="800" fill="#e8e2d0" opacity="0.82">A</text><text x="60" y="44.8" font-family="Inter,sans-serif" font-size="15" font-weight="600" fill="#e8e2d0" opacity="0.75">strat subțire, discontinuu, brun-negricios</text><rect x="0" y="89.6" width="700" height="470.4" fill="#928c7e"/><circle cx="113" cy="492.6" r="9" fill="#00000022"/><circle cx="295" cy="170.6" r="7" fill="#00000022"/><circle cx="96" cy="175.6" r="11" fill="#00000022"/><circle cx="456" cy="270.6" r="6" fill="#00000022"/><circle cx="336" cy="454.6" r="10" fill="#00000022"/><circle cx="372" cy="138.6" r="9" fill="#00000022"/><circle cx="204" cy="338.6" r="9" fill="#00000022"/><circle cx="33" cy="213.6" r="6" fill="#00000022"/><circle cx="628" cy="335.6" r="11" fill="#00000022"/><circle cx="84" cy="384.6" r="7" fill="#00000022"/><circle cx="123" cy="135.6" r="8" fill="#00000022"/><circle cx="517" cy="141.6" r="8" fill="#00000022"/><circle cx="314" cy="476.6" r="7" fill="#00000022"/><circle cx="170" cy="102.6" r="5" fill="#00000022"/><circle cx="178" cy="355.6" r="6" fill="#00000022"/><circle cx="125" cy="173.6" r="7" fill="#00000022"/><circle cx="36" cy="502.6" r="10" fill="#00000022"/><circle cx="387" cy="412.6" r="9" fill="#00000022"/><circle cx="193" cy="467.6" r="10" fill="#00000022"/><circle cx="348" cy="384.6" r="6" fill="#00000022"/><circle cx="581" cy="347.6" r="8" fill="#00000022"/><circle cx="512" cy="274.6" r="9" fill="#00000022"/><circle cx="565" cy="246.6" r="10" fill="#00000022"/><circle cx="241" cy="536.6" r="9" fill="#00000022"/><circle cx="548" cy="258.6" r="9" fill="#00000022"/><circle cx="654" cy="514.6" r="6" fill="#00000022"/><circle cx="616" cy="488.6" r="9" fill="#00000022"/><circle cx="395" cy="322.6" r="7" fill="#00000022"/><circle cx="198" cy="510.6" r="9" fill="#00000022"/><line x1="0" y1="89.6" x2="700" y2="89.6" stroke="#00000030" stroke-width="1.5"/><text x="24" y="324.8" font-family="Inter,sans-serif" font-size="21" font-weight="800" fill="#2a2118" opacity="0.82">R</text><text x="60" y="324.8" font-family="Inter,sans-serif" font-size="15" font-weight="600" fill="#2a2118" opacity="0.75">rocă compactă, aproape la suprafață</text><rect x="0" y="0" width="700" height="560" fill="none" stroke="#4a5838" stroke-width="2"/></svg>